# xmcd
#
# Track frame offsets: 
#        150
#        9905
#        24470
#        35742
#        46315
#        55622
#        67897
#        77745
#        89287
#        100475
#        111067
#        122540
#        135805
#        147470
#        157712
#        169710
#        179622
#        190320
#        200340
#        211372
#        221960
#        232605
#        242665
#
# Disc length: 3399 seconds
#
# Revision: 3
# Processed by: cddbd v1.5.2PL0 Copyright (c) Steve Scherf et al.
# Submitted via: ExactAudioCopy v1.1
#
DISCID=2e0d4517
DTITLE=The Maddox Brothers and Rose - The Most Colorful Hillbilly Band I
DTITLE=n America - Disc 3
DYEAR=1998
DGENRE=Country
TTITLE0=Rose Maddox - Words Are So Easy To Say (mono)
TTITLE1=Rose Maddox - Wild Wind (mono)
TTITLE2=Rose Maddox - Hummingbird (mono)
TTITLE3=Rose Maddox - When The Sun Goes Down (mono)
TTITLE4=I'll Find Her (mono)
TTITLE5=It's A Dark, Dark Place (mono)
TTITLE6=Away This Side Of Heaven (mono)
TTITLE7=I Wish You Would (mono)
TTITLE8=Let This Be The Last Time (mono)
TTITLE9=Old Black Choo-Choo (mono)
TTITLE10=Rose Maddox - Tall Man (mono)
TTITLE11=Rose Maddox - Hey Little Dreamboat (mono)
TTITLE12=Rose Maddox - Burrito Joe (mono)
TTITLE13=Rose Maddox - False Hearted (mono)
TTITLE14=By The Sweat Of My Brow (mono)
TTITLE15=Ugly And Slouchy (mono)
TTITLE16=Paul Bunyan Love (mono)
TTITLE17=The Death Of Rock And Roll (mono)
TTITLE18=Rose Maddox - Your Sweet, Mean Heart (mono)
TTITLE19=Rose Maddox - I'll Go Steppin' Too (mono)
TTITLE20=Rose Maddox - Did You Ever Come Home (mono)
TTITLE21=Rose Maddox - Looky There Over There (mono)
TTITLE22=Rose Maddox - Let Those Brown Eyes Smile At Me (mono)
EXTD=
EXTT0=
EXTT1=
EXTT2=
EXTT3=
EXTT4=
EXTT5=
EXTT6=
EXTT7=
EXTT8=
EXTT9=
EXTT10=
EXTT11=
EXTT12=
EXTT13=
EXTT14=
EXTT15=
EXTT16=
EXTT17=
EXTT18=
EXTT19=
EXTT20=
EXTT21=
EXTT22=
PLAYORDER=
